<svg width="999" height="664" viewBox="0 0 999 664" fill="none" xmlns="http://www.w3.org/2000/svg">
<rect width="999" height="664" fill="black"/>
<path d="M265.057 359H248.898V306.636H265.773C270.853 306.636 275.199 307.685 278.813 309.781C282.427 311.861 285.197 314.852 287.123 318.756C289.049 322.642 290.012 327.295 290.012 332.716C290.012 338.17 289.04 342.866 287.097 346.804C285.154 350.724 282.324 353.741 278.608 355.855C274.893 357.952 270.376 359 265.057 359ZM255.239 353.375H264.648C268.978 353.375 272.566 352.54 275.412 350.869C278.259 349.199 280.381 346.821 281.779 343.736C283.177 340.651 283.876 336.977 283.876 332.716C283.876 328.489 283.185 324.849 281.805 321.798C280.424 318.73 278.361 316.378 275.617 314.741C272.873 313.088 269.455 312.261 265.364 312.261H255.239V353.375ZM300.695 359H294.047L313.275 306.636H319.82L339.047 359H332.4L316.752 314.92H316.343L300.695 359ZM303.15 338.545H329.945V344.17H303.15V338.545ZM338.583 312.261V306.636H377.855V312.261H361.39V359H355.049V312.261H338.583ZM422.365 306.636H428.706V341.307C428.706 344.886 427.862 348.082 426.175 350.895C424.505 353.69 422.144 355.898 419.093 357.517C416.041 359.119 412.462 359.92 408.354 359.92C404.246 359.92 400.666 359.119 397.615 357.517C394.564 355.898 392.195 353.69 390.507 350.895C388.837 348.082 388.002 344.886 388.002 341.307V306.636H394.343V340.795C394.343 343.352 394.905 345.628 396.03 347.622C397.155 349.599 398.757 351.159 400.837 352.301C402.934 353.426 405.439 353.989 408.354 353.989C411.269 353.989 413.774 353.426 415.871 352.301C417.968 351.159 419.57 349.599 420.678 347.622C421.803 345.628 422.365 343.352 422.365 340.795V306.636ZM441.729 306.636H449.297L467.093 350.102H467.706L485.502 306.636H493.07V359H487.138V319.216H486.627L470.263 359H464.536L448.172 319.216H447.661V359H441.729V306.636Z" fill="white"/>
<rect x="116" y="281" width="102" height="103" rx="51" fill="white"/>
<path d="M146.903 352.34L159.239 312.74H165.047L152.615 352.34H146.903ZM169.544 352.34L181.88 312.74H187.688L175.256 352.34H169.544Z" fill="black"/>
<rect x="968" y="13" width="18" height="18" rx="9" fill="white"/>
<rect x="900" y="80" width="18" height="18" rx="9" fill="white"/>
<rect x="814" y="220" width="18" height="18" rx="9" fill="white"/>
<rect x="814" y="426" width="18" height="18" rx="9" fill="white"/>
<rect x="900" y="566" width="18" height="18" rx="9" fill="white"/>
<rect x="968" y="627" width="18" height="18" rx="9" fill="white"/>
<line x1="971.357" y1="25.3505" x2="913.357" y2="84.3505" stroke="white"/>
<line x1="905.428" y1="91.2582" x2="823.428" y2="227.258" stroke="white"/>
<line x1="823.5" y1="233" x2="823.5" y2="430" stroke="white"/>
<line x1="823.426" y1="434.738" x2="909.426" y2="574.738" stroke="white"/>
<line x1="909.334" y1="574.628" x2="977.334" y2="635.628" stroke="white"/>
</svg>
